/* XPM */
static char * ciaopl_bg_xpm[] = {
"24 24 58 1",
" 	c None",
".	c #E6E6E6",
"+	c #979797",
"@	c #9F9F9F",
"#	c #8F8F8F",
"$	c #9B9B9B",
"%	c #FFFFFF",
"&	c #BFBFBF",
"*	c #505050",
"=	c #898989",
"-	c #A4A4A4",
";	c #565656",
">	c #DFDFDF",
",	c #585858",
"'	c #838383",
")	c #DFBFDF",
"!	c #BF7FBF",
"~	c #7F7F7F",
"{	c #777777",
"]	c #101010",
"^	c #9F409F",
"/	c #8F208F",
"(	c #800080",
"_	c #BF8FBF",
":	c #C7C7C7",
"<	c #373737",
"[	c #F7EFF7",
"}	c #AF5FAF",
"|	c #E7CFE7",
"1	c #CFCFCF",
"2	c #CF9FCF",
"3	c #C78FC7",
"4	c #8F2070",
"5	c #E7CF18",
"6	c #FFFF00",
"7	c #B77048",
"8	c #871087",
"9	c #DFBF20",
"0	c #9F9F00",
"a	c #CF9F70",
"b	c #404000",
"c	c #FFFF10",
"d	c #FFFF9F",
"e	c #7F7F00",
"f	c #000000",
"g	c #BFBF00",
"h	c #BFBF7F",
"i	c #FFFF30",
"j	c #FFFFDF",
"k	c #AF5F50",
"l	c #F7EF08",
"m	c #973097",
"n	c #EFDFEF",
"o	c #BF7F40",
"p	c #9F3F9F",
"q	c #B770B7",
"r	c #4F4F4F",
"s	c #303030",
"..+@@@@@@@@@@@@@#$......",
"..+%%%%%%%%%%%%%&*=.....",
"..+%%%%%%%%%%%%%&-;=....",
"..+%%%%%%%%%%%%%&>&,'...",
"..+%%%%%%%)!!!!%&~{*]=..",
"..+%%%%%%^/((((^_:&&$<..",
"..+%%%[}((((((((((|%1<..",
"..+%%%}(((((((((((2%1<..",
"..+%%%(((((((((((3%%1<..",
"..+%%^((((4566782%%%1<..",
"..+%)/(((490066a%%%%1<..",
"..+%!((((56bb66cd%%%1<..",
"..+%!((((6666eff~%%%1<..",
"..+%!((((6600geeh%%%1<..",
"..+%!((((76bb66ij%%%1<..",
"..+%%^((((kl665mn%%%1<..",
"..+%%2(((((koo4(pn%%1<..",
"..+%%%(((((((((((m%%1<..",
"..+%%%|/((((((((((q%1<..",
"..+%%%%)!(((((((p!%%1<..",
"..+%%%%%%)}(((()n%%%1<..",
"..+%%%%%%%%%%%%%%%%%1<..",
"..+>>>>>>>>>>>>>>>>>:<..",
"..rssssssssssssssssss<.."};
