/* XPM */
static char * ciaocustomize_bg_xpm[] = {
"24 24 19 1",
" 	c None",
".	c #E6E6E6",
"+	c #D0C0D0",
"@	c #C5A5C5",
"#	c #B37CB3",
"$	c #800080",
"%	c #AE6EAE",
"&	c #973797",
"*	c #B989B9",
"=	c #000000",
"-	c #C0C0C0",
";	c #850E85",
">	c #FFFFFF",
",	c #912991",
"'	c #A860A8",
")	c #FFDCA8",
"!	c #808080",
"~	c #FFA858",
"{	c #9E6E9E",
"........+@#$$$$#@+......",
".......%&$$$$$$$$&%.....",
".....*&$$$$$$$$$$$$&*...",
"....#$$$$$$$$$$$$$$$$#..",
"...*$$$$$$$&%==$$$$$$$*.",
"...&$$$$$#@..=-==$$$$$;*",
"..%$$$$;===..=>--==$$,'.",
".+&$$$$=))=..=>->--=%+..",
".@$$$$=))=====-!---=....",
".#$$==))))))~)=>-!-=....",
".$$$=))))======-->-=....",
".$$$=))))~~=.=>-!--=....",
".$$$=))))))=.=>->--=....",
".$$$==~~~~=..=-!---=....",
".#$$$$=====..=>>-!-=....",
".@$$$$#......=!-->-=....",
".+&$$$${.....==-!--=%+..",
"..%$$$$;{......==--=$,..",
"...&$$$$$#@....@#===$$;*",
"...*$$$$$$$&%%&$$$$=$$*.",
"....#$$$$$$$$$$$$$$$$#..",
".....*&$$$$$$$$$$$$&*...",
".......%&$$$$$$$$&%.....",
"........+@#$$$$#@+......"};
