/* XPM */
static char * ciaoload_bg_xpm[] = {
"24 24 27 1",
" 	c None",
".	c #E6E6E6",
"+	c #D0C0D0",
"@	c #C5A5C5",
"#	c #B37CB3",
"$	c #800080",
"%	c #AE6EAE",
"&	c #973797",
"*	c #B989B9",
"=	c #7E6E7E",
"-	c #373737",
";	c #850E85",
">	c #9E6E9E",
",	c #A5A5A5",
"'	c #6E6E6E",
")	c #BFBF00",
"!	c #912991",
"~	c #A860A8",
"{	c #767637",
"]	c #7F7F00",
"^	c #898989",
"/	c #8B1B8B",
"(	c #FFFF00",
"_	c #9D9D0E",
":	c #7B7B1B",
"<	c #EFEF00",
"[	c #CAB2CA",
".......+@#$$$$#@+.......",
"......%&$$$$$$$$&%......",
"....*&$$$$$$$$$$$$&*....",
"...#$$$$$$$$$$$$$$$$#...",
"..*$$$$$$$&%%&$$$$$$$*..",
"..&$$$$$#@=--=@#$$$$$;*.",
".%$$$$;>,.'))'.,>;$$!~..",
"+&$$$$>{]^'))'^]{>/%+...",
"@$$$$#,](_:<<:_(],[.....",
"#$$$$@.^_((((((_^.......",
"$$$$&='':((((((:''^.....",
"$$$$%-))<((((((<))-.....",
"$$$$%-))<((((((<))-.....",
"$$$$&='':((((((:''^.....",
"#$$$$@.^_((((((_^.......",
"@$$$$#,](_:<<:_(],[.....",
"+&$$$$>{]^'))'^]{>/%+...",
".%$$$$;>,.'))'.,>;$$!...",
"..&$$$$$#@=--=@#$$$$$;*.",
"..*$$$$$$$&%%&$$$$$$$*..",
"...#$$$$$$$$$$$$$$$$#...",
"....*&$$$$$$$$$$$$&*....",
"......%&$$$$$$$$&%......",
".......+@#$$$$#@+......."};
