/* XPM */
static char * ciaopreprocask_bg_xpm[] = {
"24 24 22 1",
" 	c None",
".	c #E6E6E6",
"+	c #D0C0D0",
"@	c #C5A5C5",
"#	c #B37CB3",
"$	c #800080",
"%	c #AE6EAE",
"&	c #973797",
"*	c #B989B9",
"=	c #FF0000",
"-	c #FFFF00",
";	c #FFFFFF",
">	c #850E85",
",	c #9E6E9E",
"'	c #000000",
")	c #A860A8",
"!	c #00C000",
"~	c #C0FFC0",
"{	c #008000",
"]	c #00FF00",
"^	c #7F7F7F",
"/	c #912991",
".......+@#$$$$#@+.......",
"......%&$$$$$$$$&%......",
"....*&$$$$$$$$$$$$&*....",
"...#$$$$$$$$$$$$$$$$#...",
"..*$$$$$$$&%%======$$*..",
"..&$$$$$#@--=;======$>*.",
".%$$$$>,---=;==''===')..",
"+&$$$$,----==='!~==='...",
"@$$$$#------''!~!==='...",
"#$$$$@--!----!~!==='....",
"$$$$&--!~!--!~{==='-....",
"$$$$%-!~]]!{~]==''--....",
"$$$$%-{!]]]~]{===='-....",
"$$$$&-{{!]]]]!^='^--....",
"#$$$$@-{{!]]!{^;==--....",
"@$$$$#--{{!]!{====^-....",
"+&$$$$,--{{!{--=='^%+...",
".%$$$$>,--{{{---'^$$/...",
"..&$$$$$#@-{--@#$$$$$>*.",
"..*$$$$$$$&%%&$$$$$$$*..",
"...#$$$$$$$$$$$$$$$$#...",
"....*&$$$$$$$$$$$$&*....",
"......%&$$$$$$$$&%......",
".......+@#$$$$#@+......."};
