/* XPM */
static char * ciaopreprocsee_bg_xpm[] = {
"24 24 24 1",
" 	c None",
".	c #E6E6E6",
"+	c #D0C0D0",
"@	c #C5A5C5",
"#	c #B37CB3",
"$	c #000000",
"%	c #AE6EAE",
"&	c #973797",
"*	c #A0A0A4",
"=	c #DCDCDC",
"-	c #FFFFFF",
";	c #B989B9",
">	c #800080",
",	c #008000",
"'	c #00C000",
")	c #850E85",
"!	c #C0FFC0",
"~	c #912991",
"{	c #A860A8",
"]	c #9E6E9E",
"^	c #FFFF00",
"/	c #CAB2CA",
"(	c #00FF00",
"_	c #8B1B8B",
".......+@#$$$$#@+.......",
"......%&*$=--=$*&%......",
"....;&>>$--**--$*>&;....",
"...#>>>$=-*----=$>>>#...",
"..;>>>>$--------$>>>>;..",
"..&>>>>$--------$,',>);.",
".%>>>>)$=------=$!',~{..",
"+&>>>>]*$------$*',%+...",
"@>>>>#^^*$=--=$$$,/^....",
"#>>>>@^^'*$$$$*$$$^^....",
">>>>&^^'!'******$$$^....",
">>>>%^'!((',!('**$$$....",
">>>>%^,'(((!(,,^**$$$...",
">>>>&^,,'((((',^^**$$$..",
"#>>>>@^,,'((',^^^^**$*..",
"@>>>>#^^,,'(',^^^^/**...",
"+&>>>>]^^,,',^^^^]_%+...",
".%>>>>)]^^,,,^^^])>>~...",
"..&>>>>>#@^,^^@#>>>>>);.",
"..;>>>>>>>&%%&>>>>>>>;..",
"...#>>>>>>>>>>>>>>>>#...",
"....;&>>>>>>>>>>>>&;....",
"......%&>>>>>>>>&%......",
".......+@#>>>>#@+......."};
