/* XPM */
static char * ciaorehighlight_bg_xpm[] = {
"24 24 18 1",
" 	c None",
".	c #E6E6E6",
"+	c #D0C0D0",
"@	c #C5A5C5",
"#	c #B37CB3",
"$	c #800080",
"%	c #AE6EAE",
"&	c #973797",
"*	c #B989B9",
"=	c #000000",
"-	c #A860A8",
";	c #FFFF00",
">	c #912991",
",	c #CAB2CA",
"'	c #FF0000",
")	c #00C000",
"!	c #C0FFFF",
"~	c #850E85",
".......+@#$$$$#@+.......",
"......%&$$$$$$$$&%......",
"....*&$$$$$$$$$$$$&*....",
"...#================#...",
"..*$================&-..",
"..&$==;;;;;;;;;;;;==&&*.",
".%$$==;;;;;;;;;;;;==>-..",
"+&$$==;;;;;;;;;;;;==,...",
"@$$$================....",
"#$$$==''''''''''''==....",
"$$$$==''''''''''''==....",
"$$$$================....",
"$$$$==))))))))))))==....",
"$$$$==))))))))))))==....",
"#$$$================....",
"@$$$==!!!!!!!!!!!!==....",
"+&$$==!!!!!!!!!!!!==+...",
".%$$==!!!!!!!!!!!!==>...",
"..&$================$~*.",
"..*$================$*..",
"...#$~$$$$$~$$$$$$$~#...",
"....*&$$$$$~$$$$$$&*....",
".....,%&$$$$$$$$&%......",
".......+@#$$$$#@+......."};
